<svg width="1440" height="311" viewBox="0 0 1440 311" fill="none" xmlns="http://www.w3.org/2000/svg">
<path d="M1440 42.4512L1433.8 63.7512C1427.7 85.4512 1415 127.451 1403 170.451C1390.8 213.451 1378 255.451 1366 255.751C1353.8 255.451 1342 213.451 1329 159.751C1316.9 106.451 1305 42.4512 1292 15.7512C1280 -10.5488 1268 -0.548767 1255 21.1512C1243.1 42.4512 1231 74.4512 1218 117.151C1206.2 159.451 1194 213.451 1182 191.751C1169.2 170.451 1157 74.4512 1145 79.7512C1132.3 85.4512 1120 191.451 1108 245.151C1095.4 298.451 1083 298.451 1071 245.151C1058.5 191.451 1046 85.4512 1034 58.4512C1021.5 31.4512 1009 85.4512 997 101.151C984.6 117.451 972 95.4512 960 101.151C947.7 106.451 935 138.451 923 159.751C910.8 181.451 898 191.451 886 170.451C873.8 149.451 862 95.4512 849 95.7512C836.9 95.4512 825 149.451 812 170.451C800 191.451 788 181.451 775 159.751C763.1 138.451 751 106.451 738 85.1512C726.2 63.4512 714 53.4512 702 79.7512C689.2 106.451 677 170.451 665 170.451C652.3 170.451 640 106.451 628 69.1512C615.4 31.4512 603 21.4512 591 21.1512C578.5 21.4512 566 31.4512 554 74.4512C541.5 117.451 529 191.451 517 186.451C504.6 181.451 492 95.4512 480 53.1512C467.7 10.4512 455 10.4512 443 21.1512C430.8 31.4512 418 53.4512 406 85.1512C393.8 117.451 382 159.451 369 159.751C356.9 159.451 345 117.451 332 122.451C320 127.451 308 181.451 295 186.451C283.1 191.451 271 149.451 258 149.151C246.2 149.451 234 191.451 222 191.751C209.2 191.451 197 149.451 185 133.151C172.3 117.451 160 127.451 148 117.151C135.4 106.451 123 74.4512 111 74.4512C98.5 74.4512 86 106.451 74 111.751C61.5 117.451 49 95.4512 37 74.4512C24.6 53.4512 12 31.4512 6 21.1512L0 10.4512V298.451H6.19995C12.2999 298.451 25 298.451 37 298.451C49.2 298.451 62 298.451 74 298.451C86.2 298.451 98 298.451 111 298.451C123.1 298.451 135 298.451 148 298.451C160 298.451 172 298.451 185 298.451C196.9 298.451 209 298.451 222 298.451C233.8 298.451 246 298.451 258 298.451C270.8 298.451 283 298.451 295 298.451C307.7 298.451 320 298.451 332 298.451C344.6 298.451 357 298.451 369 298.451C381.5 298.451 394 298.451 406 298.451C418.5 298.451 431 298.451 443 298.451C455.4 298.451 468 298.451 480 298.451C492.3 298.451 505 298.451 517 298.451C529.2 298.451 542 298.451 554 298.451C566.2 298.451 578 298.451 591 298.451C603.1 298.451 615 298.451 628 298.451C640 298.451 652 298.451 665 298.451C676.9 298.451 689 298.451 702 298.451C713.8 298.451 726 298.451 738 298.451C750.8 298.451 763 298.451 775 298.451C787.7 298.451 800 298.451 812 298.451C824.6 298.451 837 298.451 849 298.451C861.5 298.451 874 298.451 886 298.451C898.5 298.451 911 298.451 923 298.451C935.4 298.451 948 298.451 960 298.451C972.3 298.451 985 298.451 997 298.451C1009.2 298.451 1022 298.451 1034 298.451C1046.2 298.451 1058 298.451 1071 298.451C1083.1 298.451 1095 298.451 1108 298.451C1120 298.451 1132 298.451 1145 298.451C1156.9 298.451 1169 298.451 1182 298.451C1193.8 298.451 1206 298.451 1218 298.451C1230.8 298.451 1243 298.451 1255 298.451C1267.7 298.451 1280 298.451 1292 298.451C1304.6 298.451 1317 298.451 1329 298.451C1341.5 298.451 1354 298.451 1366 298.451C1378.5 298.451 1391 298.451 1403 298.451C1415.4 298.451 1428 298.451 1434 298.451H1440V42.4512Z" fill="#252525"/>
<path d="M0 32.3384L6.2 78.8182C12.3 124.863 25 218.476 37 252.982C49.2 288.141 62 264.194 74 235.565C86.2 206.502 98 171.669 111 165.9C123.1 159.695 135 183.643 148 160.022C160 136.836 172 67.1711 185 49.7547C196.9 32.3384 209 67.1711 222 90.3566C233.8 113.978 246 124.863 258 136.836C270.8 148.81 283 159.695 295 177.438C307.7 194.528 320 218.476 332 218.149C344.6 218.476 357 194.528 369 165.9C381.5 136.836 394 102.004 406 96.2346C418.5 90.03 431 113.978 443 131.067C455.4 148.81 468 159.695 480 131.067C492.3 102.004 505 32.3384 517 43.9855C529.2 55.1973 542 148.81 554 183.316C566.2 218.476 578 194.528 591 171.669C603.1 148.81 615 124.863 628 148.484C640 171.669 652 241.335 665 229.687C676.9 218.476 689 124.863 702 113.651C713.8 102.004 726 171.669 738 212.271C750.8 253.308 763 264.194 775 252.982C787.7 241.335 800 206.502 812 206.502C824.6 206.502 837 241.335 849 218.149C861.5 194.528 874 113.978 886 90.3566C898.5 67.1711 911 102.004 923 131.067C935.4 159.695 948 183.643 960 194.855C972.3 206.502 985 206.502 997 194.855C1009.2 183.643 1022 159.695 1034 160.022C1046.2 159.695 1058 183.643 1071 171.669C1083.1 159.695 1095 113.978 1108 84.5874C1120 55.1973 1132 44.3121 1145 67.1711C1156.9 90.03 1169 148.81 1182 171.669C1193.8 194.528 1206 183.643 1218 194.855C1230.8 206.502 1243 241.335 1255 247.104C1267.7 253.308 1280 229.361 1292 200.733C1304.6 171.669 1317 136.836 1329 107.773C1341.5 79.1448 1354 55.1973 1366 38.1075C1378.5 20.3646 1391 9.4794 1403 26.5692C1415.4 44.3121 1428 90.03 1434 113.651L1440 136.836V311H1433.8C1427.7 311 1415 311 1403 311C1390.8 311 1378 311 1366 311C1353.8 311 1342 311 1329 311C1316.9 311 1305 311 1292 311C1280 311 1268 311 1255 311C1243.1 311 1231 311 1218 311C1206.2 311 1194 311 1182 311C1169.2 311 1157 311 1145 311C1132.3 311 1120 311 1108 311C1095.4 311 1083 311 1071 311C1058.5 311 1046 311 1034 311C1021.5 311 1009 311 997 311C984.6 311 972 311 960 311C947.7 311 935 311 923 311C910.8 311 898 311 886 311C873.8 311 862 311 849 311C836.9 311 825 311 812 311C800 311 788 311 775 311C763.1 311 751 311 738 311C726.2 311 714 311 702 311C689.2 311 677 311 665 311C652.3 311 640 311 628 311C615.4 311 603 311 591 311C578.5 311 566 311 554 311C541.5 311 529 311 517 311C504.6 311 492 311 480 311C467.7 311 455 311 443 311C430.8 311 418 311 406 311C393.8 311 382 311 369 311C356.9 311 345 311 332 311C320 311 308 311 295 311C283.1 311 271 311 258 311C246.2 311 234 311 222 311C209.2 311 197 311 185 311C172.3 311 160 311 148 311C135.4 311 123 311 111 311C98.5 311 86 311 74 311C61.5 311 49 311 37 311C24.6 311 12 311 6 311H0V32.3384Z" fill="black"/>
</svg>
