<svg width="315" height="274" viewBox="0 0 315 274" fill="none" xmlns="http://www.w3.org/2000/svg">
<mask id="path-1-inside-1_103_118" fill="white">
<path d="M256 175.5C256 162.565 253.452 149.756 248.502 137.806C243.552 125.855 236.297 114.997 227.15 105.85C218.003 96.7034 207.145 89.448 195.194 84.4979C183.244 79.5478 170.435 77 157.5 77C144.565 77 131.756 79.5478 119.806 84.4979C107.855 89.448 96.9965 96.7034 87.85 105.85C78.7034 114.997 71.448 125.855 66.4979 137.806C61.5478 149.756 59 162.565 59 175.5L157.5 175.5H256Z"/>
</mask>
<path d="M256 175.5C256 162.565 253.452 149.756 248.502 137.806C243.552 125.855 236.297 114.997 227.15 105.85C218.003 96.7034 207.145 89.448 195.194 84.4979C183.244 79.5478 170.435 77 157.5 77C144.565 77 131.756 79.5478 119.806 84.4979C107.855 89.448 96.9965 96.7034 87.85 105.85C78.7034 114.997 71.448 125.855 66.4979 137.806C61.5478 149.756 59 162.565 59 175.5L157.5 175.5H256Z" stroke="black" stroke-width="20" mask="url(#path-1-inside-1_103_118)"/>
<line x1="7" y1="171" x2="307" y2="171" stroke="black" stroke-width="10"/>
<line x1="152" y1="47" x2="152" stroke="black" stroke-width="10"/>
<line x1="228.67" y1="65.2031" x2="252.17" y2="24.4999" stroke="black" stroke-width="10"/>
<line x1="271.5" y1="124.17" x2="312.203" y2="100.67" stroke="black" stroke-width="10"/>
<line y1="-5" x2="47" y2="-5" transform="matrix(-0.866025 -0.5 -0.5 0.866025 40.7032 128.5)" stroke="black" stroke-width="10"/>
<line y1="-5" x2="47" y2="-5" transform="matrix(-0.5 -0.866025 -0.866025 0.5 70.5 67.7031)" stroke="black" stroke-width="10"/>
<path d="M160.536 200.464C158.583 198.512 155.417 198.512 153.464 200.464L121.645 232.284C119.692 234.237 119.692 237.403 121.645 239.355C123.597 241.308 126.763 241.308 128.716 239.355L157 211.071L185.284 239.355C187.237 241.308 190.403 241.308 192.355 239.355C194.308 237.403 194.308 234.237 192.355 232.284L160.536 200.464ZM162 274V204H152V274H162Z" fill="black"/>
</svg>
