<svg width="209" height="234" viewBox="0 0 209 234" fill="none" xmlns="http://www.w3.org/2000/svg">
<path d="M94.4559 120.574C108.383 158.113 140.88 175.602 162.014 185.421C164.391 186.525 166.556 187.502 168.538 188.396C171.112 189.557 173.378 190.579 175.396 191.56C176.4 192.047 177.272 192.492 178.02 192.901C175.998 193.748 172.995 194.769 168.711 195.988C143.734 203.093 113.308 200.819 87.3309 190.368C61.3286 179.906 40.6189 161.627 33.7386 137.441C26.755 112.892 32.3238 85.1101 46.2161 61.48C60.1074 37.8515 81.963 18.9961 106.657 11.9714C111.922 10.4735 115.28 9.85751 117.295 9.74847C117.231 9.93383 117.157 10.1358 117.073 10.3552C116.597 11.59 115.888 13.0961 114.945 14.918C113.805 17.1212 112.468 19.5195 110.957 22.2281C109.905 24.1137 108.77 26.1498 107.559 28.375C96.1216 49.3882 80.4462 82.8113 94.4559 120.574ZM180.958 191.332C180.959 191.332 180.953 191.338 180.939 191.35C180.951 191.338 180.958 191.332 180.958 191.332ZM118.998 9.8239C118.997 9.82413 118.99 9.82215 118.976 9.81726C118.991 9.82122 118.998 9.82367 118.998 9.8239Z" stroke="black" stroke-width="10"/>
<path d="M169 52.9998L177.981 80.6391H207.042L183.531 97.7211L192.511 125.36L169 108.278L145.489 125.36L154.469 97.7211L130.958 80.6391H160.019L169 52.9998Z" fill="black"/>
</svg>
