<svg width="315" height="339" viewBox="0 0 315 339" fill="none" xmlns="http://www.w3.org/2000/svg">
<circle cx="156.5" cy="175.5" r="93.5" stroke="black" stroke-width="10"/>
<line x1="152" y1="47" x2="152" stroke="black" stroke-width="10"/>
<line x1="228.67" y1="65.2031" x2="252.17" y2="24.4999" stroke="black" stroke-width="10"/>
<line x1="271.5" y1="124.17" x2="312.203" y2="100.67" stroke="black" stroke-width="10"/>
<line y1="-5" x2="47" y2="-5" transform="matrix(-0.866025 -0.5 -0.5 0.866025 40.7032 128.5)" stroke="black" stroke-width="10"/>
<line y1="-5" x2="47" y2="-5" transform="matrix(-0.5 -0.866025 -0.866025 0.5 70.5 67.7031)" stroke="black" stroke-width="10"/>
<line y1="-5" x2="47" y2="-5" transform="matrix(0 1 1 0 157 291.5)" stroke="black" stroke-width="10"/>
<line y1="-5" x2="47" y2="-5" transform="matrix(0.5 0.866025 0.866025 -0.5 233 270.797)" stroke="black" stroke-width="10"/>
<line y1="-5" x2="47" y2="-5" transform="matrix(0.866025 0.5 0.5 -0.866025 274 210)" stroke="black" stroke-width="10"/>
<line x1="43.2032" y1="214.33" x2="2.49999" y2="237.83" stroke="black" stroke-width="10"/>
<line x1="74.8301" y1="273.297" x2="51.3301" y2="314" stroke="black" stroke-width="10"/>
</svg>
