<svg width="95" height="162" viewBox="0 0 95 162" fill="none" xmlns="http://www.w3.org/2000/svg">
<path d="M8.226 132.588C7.578 132.948 6.948 133.092 6.282 133.092C4.212 133.092 3.114 131.616 3.114 128.736V128.682C3.114 125.73 4.194 124.29 6.336 124.29C6.948 124.29 7.578 124.398 8.262 124.614L8.478 122.472C7.578 122.256 6.768 122.13 5.976 122.13H5.904C2.376 122.13 0.486 124.452 0.486 128.826C0.486 133.02 2.232 135.27 5.562 135.27H5.652C6.66 135.27 7.686 135.036 8.46 134.586L8.226 132.588ZM11.9474 135L12.5954 131.976H15.3674L15.9794 135H18.7514C17.7254 130.608 16.7354 126.414 15.9434 122.4H12.1814C11.3354 126.414 10.3814 130.608 9.28336 135H11.9474ZM12.8294 130.086L13.9454 124.704H14.0354L15.1334 130.086H12.8294ZM22.3533 135C22.2993 133.506 22.2813 131.49 22.2633 129.96H23.3073C23.5953 133.578 24.7653 135.27 26.8533 135.27C27.3213 135.27 27.8613 135.162 28.1133 135.036C28.0773 134.01 28.0413 133.614 28.0233 132.66C27.8793 132.732 27.5013 132.786 27.1953 132.786C25.8633 132.786 25.0893 131.688 24.7833 129.366L24.7653 129.186H24.8553C26.8713 129.204 27.8253 128.07 27.8253 125.91C27.8253 123.552 26.7093 122.4 24.3333 122.4H19.6533C19.7613 126.504 19.7613 130.698 19.6533 135H22.3533ZM22.2453 128.466L22.2633 124.56H23.9193C24.9813 124.56 25.3053 125.208 25.3053 126.54V126.612C25.3053 127.836 24.9633 128.466 23.8653 128.466H22.2453ZM31.9334 135C31.8794 133.506 31.8614 131.49 31.8434 129.96H32.8874C33.1754 133.578 34.3454 135.27 36.4334 135.27C36.9014 135.27 37.4414 135.162 37.6934 135.036C37.6574 134.01 37.6214 133.614 37.6034 132.66C37.4594 132.732 37.0814 132.786 36.7754 132.786C35.4434 132.786 34.6694 131.688 34.3634 129.366L34.3454 129.186H34.4354C36.4514 129.204 37.4054 128.07 37.4054 125.91C37.4054 123.552 36.2894 122.4 33.9134 122.4H29.2334C29.3414 126.504 29.3414 130.698 29.2334 135H31.9334ZM31.8254 128.466L31.8434 124.56H33.4994C34.5614 124.56 34.8854 125.208 34.8854 126.54V126.612C34.8854 127.836 34.5434 128.466 33.4454 128.466H31.8254ZM41.4775 127.71C41.4775 126.72 41.4775 125.208 41.4775 124.524C42.5755 124.524 44.2495 124.56 45.4195 124.632L45.5455 122.4H38.8675C38.9935 126.504 38.9935 130.698 38.8675 135H45.4915L45.6175 132.732C44.3935 132.822 42.6835 132.822 41.4775 132.84C41.4775 132.174 41.4775 130.572 41.4775 129.546H44.8615L44.9695 127.71H41.4775ZM52.5828 129.096C52.6008 129.78 52.6368 132.3 52.6548 133.002C52.2948 133.128 51.9708 133.182 51.7008 133.182C50.2788 133.182 49.4508 131.616 49.4508 128.97V128.844C49.4508 125.82 50.5128 124.29 52.5828 124.29C53.2308 124.29 54.0588 124.434 54.7788 124.668L55.0128 122.472C53.8608 122.22 53.1408 122.13 52.3128 122.13H52.0608C48.6768 122.13 46.8048 124.56 46.8048 128.952C46.8048 133.02 48.5328 135.27 51.7368 135.27H51.8088C52.9068 135.27 54.0588 135.036 55.0668 134.64C54.9948 133.308 54.9408 130.41 54.9408 129.096H52.5828ZM58.3888 135L59.0368 131.976H61.8088L62.4208 135H65.1928C64.1668 130.608 63.1768 126.414 62.3848 122.4H58.6228C57.7768 126.414 56.8228 130.608 55.7248 135H58.3888ZM59.2708 130.086L60.3868 124.704H60.4768L61.5748 130.086H59.2708ZM68.7407 135C68.7407 133.524 68.6867 128.916 68.6687 127.476H68.7407L71.4227 135H74.3387C74.1947 130.698 74.1947 126.504 74.3387 122.4H71.6927C71.7467 123.462 71.7827 127.998 71.9267 130.374H71.8547L69.0287 122.4H66.0767C66.2207 126.504 66.2207 130.698 66.0767 135H68.7407ZM75.9033 122.4C76.0113 126.504 76.0113 130.698 75.9033 135H79.9713C82.8513 135 84.3453 132.696 84.3453 128.682C84.3453 124.614 82.7973 122.4 79.9713 122.4H75.9033ZM78.5313 132.84C78.4953 130.86 78.5133 126.468 78.5313 124.56H79.6293C81.0873 124.56 81.6993 125.64 81.6993 128.664V128.754C81.6993 131.67 81.1413 132.84 79.6293 132.84H78.5313ZM85.3 128.682C85.3 132.894 86.848 135.27 89.602 135.27H90.088C92.77 135.27 94.39 133.038 94.39 128.682C94.39 124.344 92.77 122.13 90.088 122.13H89.602C86.902 122.13 85.3 124.326 85.3 128.682ZM89.854 133.002C88.63 133.002 87.946 131.706 87.946 128.736V128.646C87.946 125.766 88.648 124.488 89.854 124.488C91.06 124.488 91.744 125.748 91.744 128.646V128.736C91.744 131.706 91.078 133.002 89.854 133.002Z" fill="#36393E"/>
<path d="M40.4086 0.0384006C36.6131 0.205406 33.068 0.911381 29.0143 2.29297C22.9946 4.35017 19.5027 6.39218 15.0239 10.4914C11.9798 13.2773 10.3705 15.4712 8.02485 20.0259C6.31685 23.3508 5.46664 25.3169 4.50257 28.1484C2.51369 34.0391 0.767729 43.0194 0.213576 50.2765C-0.0445229 53.647 -0.0672963 59.1582 0.137664 67.5084C0.160438 68.2827 0.190802 70.1957 0.213576 71.7594C0.236349 73.3232 0.266714 75.4791 0.289487 76.5419C0.31226 77.6046 0.342625 79.6542 0.365398 81.0965C0.426128 85.0515 0.479265 87.716 0.517221 88.7256C0.691817 93.0222 0.722182 95.7247 0.669044 101.251C0.608315 107.423 0.593133 109.783 0.615906 112.046C0.631088 113.207 0.64627 113.359 0.760137 113.427C0.896778 113.496 1.57239 113.511 13.3842 113.7C25.0973 113.89 29.3256 113.966 33.7284 114.042C39.0422 114.133 40.4086 114.156 54.7559 114.384C61.1248 114.49 67.4559 114.581 68.8374 114.589L71.3349 114.611L71.4108 114.346C71.464 114.171 71.4867 110.231 71.4943 103.111C71.4943 92.9387 71.4867 92.0885 71.3577 91.4205C71.0616 89.8415 70.6289 88.9154 69.7939 88.0804C69.1031 87.3972 68.4123 87.0252 67.3344 86.7519C66.2337 86.4711 64.8445 86.4027 61.6031 86.4635L58.7792 86.509L58.931 86.1522C59.0904 85.8106 59.0904 85.7195 59.0449 83.3132C59.0069 81.4761 59.0221 80.2236 59.1132 78.4928C59.3637 73.7256 59.2498 71.7898 58.5894 69.1785C57.7164 65.7397 56.3424 63.6369 54.3004 62.6121C53.0175 61.9669 51.8333 61.7391 49.556 61.686L47.8783 61.6481V61.1015C47.8707 60.8054 47.81 60.0691 47.7493 59.4618C47.6809 58.8545 47.5595 57.2983 47.4684 56.0078C47.1875 51.7189 46.9142 49.7452 46.1399 46.5189C44.9102 41.3645 43.2325 39.778 38.5488 39.3453C38.0933 39.3073 37.5164 39.2694 37.2659 39.2694H36.818L36.8636 38.943C37.0989 37.2122 37.1217 28.8543 36.8863 27.2526C36.5068 24.5957 35.6262 23.0244 33.9638 22.0375C32.1343 20.952 29.1965 20.6028 22.6454 20.7015C20.7856 20.7242 18.2957 20.7698 17.1114 20.8002L14.948 20.8457L15.1605 20.4737C16.2233 18.6291 17.4758 17.0729 19.1914 15.4788C23.2147 11.7363 26.4941 9.87651 32.1723 8.09259C36.3322 6.78692 38.6019 6.49846 46.102 6.33145C47.4988 6.30109 48.9714 6.30109 49.3662 6.33904C49.7609 6.36941 50.7705 6.45291 51.6056 6.51364C54.3308 6.7186 55.7048 6.93115 57.7544 7.46253C61.4133 8.40383 65.3531 9.95242 67.6988 11.372C69.6345 12.541 72.0485 14.5071 73.9615 16.4732C75.7606 18.3103 76.8005 19.9044 78.7287 23.7455C80.3911 27.0704 81.1427 28.9075 82.046 31.906C83.754 37.569 85.2115 46.0103 85.5835 52.3261C85.6518 53.5711 85.6822 61.2078 85.6214 62.3844C85.6063 62.6729 85.5683 64.4036 85.5455 66.2179C85.5152 68.0322 85.4848 70.2184 85.462 71.0762C85.4393 71.934 85.4089 73.8242 85.3861 75.2893C85.2495 84.467 85.2267 85.7879 85.0673 90.6993C84.9762 93.8345 84.961 95.9296 85.0066 101.706C85.0749 110.74 85.0673 112.099 84.9762 114.019L84.9306 114.87L85.462 114.907C85.7581 114.93 87.1548 114.968 88.582 114.983C90.5633 115.014 91.2009 115.006 91.292 114.93C91.3907 114.862 91.4362 114.672 91.4742 114.232C91.5349 113.518 91.5425 107.749 91.497 99.3532C91.4742 95.4362 91.4894 92.5136 91.5501 90.9271C91.664 88.0348 91.7095 86.1674 91.7627 82.8045C91.8538 77.3693 91.96 71.1825 92.0739 64.6238C92.1954 57.8069 92.1802 53.5863 92.0284 51.3393C91.664 46.1242 90.829 40.6282 89.5157 34.8665C88.1417 28.8088 86.669 24.8235 83.8223 19.4262C81.6057 15.2207 80.1938 13.3381 77.1118 10.4762C73.0885 6.73378 69.6497 4.65381 64.2448 2.68012C61.0034 1.4959 57.8075 0.683647 55.0595 0.326864C52.5089 0.000444885 49.351 -0.0906487 47.1268 0.0991296C46.3373 0.16745 45.8059 0.16745 45.0392 0.106721C43.7032 -0.00714625 41.9724 -0.0299197 40.4086 0.0384006ZM27.9971 23.7076C31.5953 23.9353 32.8706 24.3984 33.4703 25.7116C33.6905 26.1975 33.941 27.2526 33.9714 27.8371L33.9941 28.285L32.362 28.2698C31.4663 28.2622 28.9384 28.2243 26.7446 28.1863C24.5508 28.1484 20.2694 28.0801 17.2177 28.0345C14.1737 27.9814 11.6382 27.9358 11.5851 27.9206C11.5244 27.8979 11.5927 27.6625 11.7976 27.1843C12.0557 26.5922 13.2931 23.9505 13.3538 23.8746C13.3614 23.8594 15.0011 23.8062 16.9976 23.7531C21.5523 23.6316 26.4106 23.6089 27.9971 23.7076ZM35.7401 42.192C39.6192 42.2603 40.8945 42.5336 41.7599 43.4749C42.2305 43.9911 42.6025 44.773 42.9365 45.9116C43.187 46.7618 43.1946 46.8226 43.0655 46.8453C42.9896 46.8605 38.7462 46.7998 33.6373 46.7163C28.5285 46.6252 22.2051 46.5189 19.571 46.481C10.1883 46.3215 7.22019 46.2608 7.18983 46.2305C7.15187 46.1925 7.58457 43.2471 7.6453 43.1485C7.67566 43.1029 7.78194 43.065 7.88062 43.065C7.97172 43.065 8.44996 42.9966 8.93579 42.9131C10.454 42.655 12.1013 42.5336 15.282 42.4577C16.9748 42.4197 19.7228 42.3286 21.3928 42.2679C23.0629 42.1996 24.991 42.1388 25.6818 42.1312C27.2684 42.1085 33.1515 42.1464 35.7401 42.192ZM14.8645 64.3733C18.0224 64.5403 25.6439 64.5555 28.9081 64.4036C31.8838 64.2594 36.0817 64.2746 38.8904 64.434C40.2113 64.5099 43.1946 64.5858 46.1779 64.6238C51.5296 64.6845 51.5904 64.6921 52.6152 65.0717C53.5185 65.4133 54.2852 66.2027 54.8622 67.3945C55.2038 68.0929 55.6289 69.3151 55.7124 69.8541L55.7579 70.1577L54.5585 70.1198C53.8905 70.1046 51.1349 70.0514 48.4173 70.0135C45.7072 69.9679 39.3838 69.8693 34.3737 69.7858C9.51272 69.3758 6.74195 69.3227 6.69641 69.2392C6.64327 69.1557 6.55976 64.3885 6.60531 64.3277C6.62049 64.305 7.06837 64.267 7.59975 64.2366C8.92061 64.1607 11.9495 64.2139 14.8645 64.3733ZM43.1414 89.1431C44.9178 89.1811 48.6071 89.2722 51.3399 89.3405C54.9229 89.4316 57.5039 89.4544 60.5631 89.4164C65.0495 89.3633 65.9756 89.4012 66.8637 89.6821C67.7291 89.9478 68.1466 90.4792 68.3744 91.5875C68.5034 92.1948 68.6856 94.7454 68.6173 94.8213C68.5717 94.8593 64.6851 94.8061 53.1238 94.6088C47.9011 94.5177 41.6156 94.4114 32.5518 94.2672C16.5649 94.0091 7.20501 93.8421 7.18983 93.8269C7.18224 93.8193 7.15187 93.0602 7.1291 92.1416C7.09874 91.2231 7.06078 90.2439 7.03801 89.963L6.99246 89.4544L7.25056 89.4164C8.06281 89.2798 11.7673 89.2115 15.8134 89.257C20.0037 89.3102 23.1995 89.257 27.5796 89.0672C29.2497 88.9913 38.5944 89.0369 43.1414 89.1431Z" fill="#36393E"/>
</svg>
