<svg width="243" height="216" viewBox="0 0 243 216" fill="none" xmlns="http://www.w3.org/2000/svg">
<path d="M3.492 135C3.456 133.83 3.438 131.724 3.42 130.59H5.292C7.848 130.59 9.036 129.276 9.036 126.468C9.036 123.66 7.848 122.4 5.238 122.4H0.792C0.918 126.504 0.918 130.698 0.792 135H3.492ZM3.384 128.898L3.402 124.56H5.022C6.048 124.56 6.534 125.28 6.534 126.63V126.702C6.534 128.25 6.102 128.898 5.022 128.898H3.384ZM10.8399 135L11.4879 131.976H14.2599L14.8719 135H17.6439C16.6179 130.608 15.6279 126.414 14.8359 122.4H11.0739C10.2279 126.414 9.27394 130.608 8.17594 135H10.8399ZM11.7219 130.086L12.8379 124.704H12.9279L14.0259 130.086H11.7219ZM21.2459 135C21.1919 133.506 21.1739 131.49 21.1559 129.96H22.1999C22.4879 133.578 23.6579 135.27 25.7459 135.27C26.2139 135.27 26.7539 135.162 27.0059 135.036C26.9699 134.01 26.9339 133.614 26.9159 132.66C26.7719 132.732 26.3939 132.786 26.0879 132.786C24.7559 132.786 23.9819 131.688 23.6759 129.366L23.6579 129.186H23.7479C25.7639 129.204 26.7179 128.07 26.7179 125.91C26.7179 123.552 25.6019 122.4 23.2259 122.4H18.5459C18.6539 126.504 18.6539 130.698 18.5459 135H21.2459ZM21.1379 128.466L21.1559 124.56H22.8119C23.8739 124.56 24.1979 125.208 24.1979 126.54V126.612C24.1979 127.836 23.8559 128.466 22.7579 128.466H21.1379ZM30.79 127.71C30.79 126.72 30.79 125.208 30.79 124.524C31.888 124.524 33.562 124.56 34.732 124.632L34.858 122.4H28.18C28.306 126.504 28.306 130.698 28.18 135H34.804L34.93 132.732C33.706 132.822 31.996 132.822 30.79 132.84C30.79 132.174 30.79 130.572 30.79 129.546H34.174L34.282 127.71H30.79ZM43.8393 132.588C43.1913 132.948 42.5613 133.092 41.8953 133.092C39.8253 133.092 38.7273 131.616 38.7273 128.736V128.682C38.7273 125.73 39.8073 124.29 41.9493 124.29C42.5613 124.29 43.1913 124.398 43.8753 124.614L44.0913 122.472C43.1913 122.256 42.3813 122.13 41.5893 122.13H41.5173C37.9893 122.13 36.0993 124.452 36.0993 128.826C36.0993 133.02 37.8453 135.27 41.1753 135.27H41.2653C42.2733 135.27 43.2993 135.036 44.0733 134.586L43.8393 132.588ZM47.9111 127.71C47.9111 126.72 47.9111 125.208 47.9111 124.524C49.0091 124.524 50.6831 124.56 51.8531 124.632L51.9791 122.4H45.3011C45.4271 126.504 45.4271 130.698 45.3011 135H51.9251L52.0511 132.732C50.8271 132.822 49.1171 132.822 47.9111 132.84C47.9111 132.174 47.9111 130.572 47.9111 129.546H51.2951L51.4031 127.71H47.9111ZM60.5753 135.09C61.0253 137.79 62.2673 139.05 64.4273 139.05C64.9853 139.05 65.6873 138.96 66.0113 138.834C65.9573 137.97 65.9213 137.574 65.9033 136.71C65.4893 136.818 64.7693 136.908 64.3373 136.908C63.1853 136.908 62.4473 136.152 62.2493 135.144C64.8233 134.802 66.3353 132.318 66.3353 128.448C66.3353 124.344 64.6613 122.13 62.0333 122.13H61.5473C58.8653 122.13 57.2453 124.326 57.2453 128.646C57.2453 132.282 58.4153 134.55 60.5753 135.09ZM61.7813 132.948C60.5393 132.948 59.8913 131.76 59.8913 128.736V128.646C59.8913 125.64 60.5393 124.434 61.7813 124.434C63.0413 124.434 63.6893 125.64 63.6893 128.646V128.736C63.6893 131.778 63.0413 132.948 61.7813 132.948ZM67.4286 122.4C67.5006 124.398 67.5006 128.952 67.5006 129.672C67.5006 133.812 68.6706 135.27 71.4246 135.27H71.7486C74.4666 135.27 75.6366 133.758 75.6366 129.618C75.6366 128.988 75.6366 124.398 75.7086 122.4H73.0266C73.1166 124.47 73.1526 128.106 73.1526 129.312C73.1526 132.156 72.7206 133.056 71.5866 133.056C70.4706 133.056 70.0206 132.21 70.0206 129.204C70.0206 128.214 70.0566 124.434 70.1286 122.4H67.4286ZM79.8505 127.71C79.8505 126.72 79.8505 125.208 79.8505 124.524C80.9485 124.524 82.6225 124.56 83.7925 124.632L83.9185 122.4H77.2405C77.3665 126.504 77.3665 130.698 77.2405 135H83.8645L83.9905 132.732C82.7665 132.822 81.0565 132.822 79.8505 132.84C79.8505 132.174 79.8505 130.572 79.8505 129.546H83.2345L83.3425 127.71H79.8505ZM91.5068 135H95.3408L97.9688 122.4H95.3408L93.5048 132.588H93.4328L91.5788 122.4H88.8428L91.5068 135ZM98.3606 128.682C98.3606 132.894 99.9086 135.27 102.663 135.27H103.149C105.831 135.27 107.451 133.038 107.451 128.682C107.451 124.344 105.831 122.13 103.149 122.13H102.663C99.9626 122.13 98.3606 124.326 98.3606 128.682ZM102.915 133.002C101.691 133.002 101.007 131.706 101.007 128.736V128.646C101.007 125.766 101.709 124.488 102.915 124.488C104.121 124.488 104.805 125.748 104.805 128.646V128.736C104.805 131.706 104.139 133.002 102.915 133.002ZM116.156 132.588C115.508 132.948 114.878 133.092 114.212 133.092C112.142 133.092 111.044 131.616 111.044 128.736V128.682C111.044 125.73 112.124 124.29 114.266 124.29C114.878 124.29 115.508 124.398 116.192 124.614L116.408 122.472C115.508 122.256 114.698 122.13 113.906 122.13H113.834C110.306 122.13 108.416 124.452 108.416 128.826C108.416 133.02 110.162 135.27 113.492 135.27H113.582C114.59 135.27 115.616 135.036 116.39 134.586L116.156 132.588ZM118.679 120.888C118.751 121.032 118.895 121.374 118.949 121.518L120.983 120.204L122.963 121.518C123.053 121.32 123.143 121.086 123.251 120.888L121.271 118.584H120.713L118.679 120.888ZM120.227 127.71C120.227 126.72 120.227 125.208 120.227 124.524C121.325 124.524 122.999 124.56 124.169 124.632L124.295 122.4H117.617C117.743 126.504 117.743 130.698 117.617 135H124.241L124.367 132.732C123.143 132.822 121.433 132.822 120.227 132.84C120.227 132.174 120.227 130.572 120.227 129.546H123.611L123.719 127.71H120.227ZM131.848 135L132.496 131.976H135.268L135.88 135H138.652C137.626 130.608 136.636 126.414 135.844 122.4H132.082C131.236 126.414 130.282 130.608 129.184 135H131.848ZM132.73 130.086L133.846 124.704H133.936L135.034 130.086H132.73ZM142.182 135C142.074 130.698 142.074 126.504 142.182 122.4H139.482C139.608 126.504 139.608 130.698 139.482 135H142.182ZM146.348 135C146.348 133.524 146.294 128.916 146.276 127.476H146.348L149.03 135H151.946C151.802 130.698 151.802 126.504 151.946 122.4H149.3C149.354 123.462 149.39 127.998 149.534 130.374H149.462L146.636 122.4H143.684C143.828 126.504 143.828 130.698 143.684 135H146.348ZM153.511 122.4C153.619 126.504 153.619 130.698 153.511 135H157.579C160.459 135 161.953 132.696 161.953 128.682C161.953 124.614 160.405 122.4 157.579 122.4H153.511ZM156.139 132.84C156.103 130.86 156.121 126.468 156.139 124.56H157.237C158.695 124.56 159.307 125.64 159.307 128.664V128.754C159.307 131.67 158.749 132.84 157.237 132.84H156.139ZM164.543 135L165.191 131.976H167.963L168.575 135H171.347C170.321 130.608 169.331 126.414 168.539 122.4H164.777C163.931 126.414 162.977 130.608 161.879 135H164.543ZM165.425 130.086L166.541 124.704H166.631L167.729 130.086H165.425ZM178.938 135C178.938 133.524 178.884 128.916 178.866 127.476H178.938L181.62 135H184.536C184.392 130.698 184.392 126.504 184.536 122.4H181.89C181.944 123.462 181.98 127.998 182.124 130.374H182.052L179.226 122.4H176.274C176.418 126.504 176.418 130.698 176.274 135H178.938ZM188.801 121.338C188.801 120.582 188.909 120.204 189.251 120.204C189.683 120.204 190.169 121.338 190.979 121.338C191.915 121.338 192.185 119.808 191.987 118.566H191.411C191.411 119.322 191.285 119.7 190.961 119.7C190.529 119.7 190.223 118.566 189.359 118.566C188.441 118.566 188.081 119.898 188.261 121.338H188.801ZM188.063 135L188.711 131.976H191.483L192.095 135H194.867C193.841 130.608 192.851 126.414 192.059 122.4H188.297C187.451 126.414 186.497 130.608 185.399 135H188.063ZM188.945 130.086L190.061 124.704H190.151L191.249 130.086H188.945ZM194.724 128.682C194.724 132.894 196.272 135.27 199.026 135.27H199.512C202.194 135.27 203.814 133.038 203.814 128.682C203.814 124.344 202.194 122.13 199.512 122.13H199.026C196.326 122.13 194.724 124.326 194.724 128.682ZM199.278 133.002C198.054 133.002 197.37 131.706 197.37 128.736V128.646C197.37 125.766 198.072 124.488 199.278 124.488C200.484 124.488 201.168 125.748 201.168 128.646V128.736C201.168 131.706 200.502 133.002 199.278 133.002ZM211.792 127.71C211.792 126.72 211.792 125.208 211.792 124.524C212.89 124.524 214.564 124.56 215.734 124.632L215.86 122.4H209.182C209.308 126.504 209.308 130.698 209.182 135H215.806L215.932 132.732C214.708 132.822 212.998 132.822 211.792 132.84C211.792 132.174 211.792 130.572 211.792 129.546H215.176L215.284 127.71H211.792ZM217.299 134.424C218.487 134.964 219.837 135.27 221.151 135.27H221.277C223.617 135.27 225.201 133.848 225.201 131.76C225.201 127.962 219.999 127.89 219.999 125.658C219.999 124.794 220.755 124.218 221.925 124.218H222.033C222.915 124.218 223.995 124.416 224.931 124.722L225.075 122.508C224.103 122.274 222.753 122.13 221.565 122.13H221.439C218.793 122.13 217.173 123.408 217.173 125.388C217.173 128.916 222.447 129.042 222.447 131.508C222.447 132.444 221.763 133.056 220.755 133.056H220.647C219.693 133.056 218.469 132.678 217.533 132.102L217.299 134.424ZM231.461 135C231.371 132.066 231.335 127.386 231.371 124.542C232.181 124.56 233.369 124.578 234.215 124.632L234.359 122.4H225.971V124.632C226.889 124.578 228.023 124.56 228.833 124.542C228.887 127.386 228.833 132.066 228.743 135H231.461ZM235.969 120.474C236.041 120.618 236.203 121.05 236.257 121.176L239.965 120.15C239.857 119.844 239.443 118.728 239.281 118.17L235.969 120.474ZM235.699 135L236.347 131.976H239.119L239.731 135H242.503C241.477 130.608 240.487 126.414 239.695 122.4H235.933C235.087 126.414 234.133 130.608 233.035 135H235.699ZM236.581 130.086L237.697 124.704H237.787L238.885 130.086H236.581ZM3.438 151C3.438 149.524 3.384 144.916 3.366 143.476H3.438L6.12 151H9.036C8.892 146.698 8.892 142.504 9.036 138.4H6.39C6.444 139.462 6.48 143.998 6.624 146.374H6.552L3.726 138.4H0.774C0.918 142.504 0.918 146.698 0.774 151H3.438ZM10.2766 144.682C10.2766 148.894 11.8246 151.27 14.5786 151.27H15.0646C17.7466 151.27 19.3666 149.038 19.3666 144.682C19.3666 140.344 17.7466 138.13 15.0646 138.13H14.5786C11.8786 138.13 10.2766 140.326 10.2766 144.682ZM14.8306 149.002C13.6066 149.002 12.9226 147.706 12.9226 144.736V144.646C12.9226 141.766 13.6246 140.488 14.8306 140.488C16.0366 140.488 16.7206 141.748 16.7206 144.646V144.736C16.7206 147.706 16.0546 149.002 14.8306 149.002ZM27.3267 151C27.3267 149.524 27.2727 144.916 27.2547 143.476H27.3267L30.0087 151H32.9247C32.7807 146.698 32.7807 142.504 32.9247 138.4H30.2787C30.3327 139.462 30.3687 143.998 30.5127 146.374H30.4407L27.6147 138.4H24.6627C24.8067 142.504 24.8067 146.698 24.6627 151H27.3267ZM34.1653 144.682C34.1653 148.894 35.7133 151.27 38.4673 151.27H38.9533C41.6353 151.27 43.2553 149.038 43.2553 144.682C43.2553 140.344 41.6353 138.13 38.9533 138.13H38.4673C35.7673 138.13 34.1653 140.326 34.1653 144.682ZM38.7193 149.002C37.4953 149.002 36.8113 147.706 36.8113 144.736V144.646C36.8113 141.766 37.5133 140.488 38.7193 140.488C39.9253 140.488 40.6093 141.748 40.6093 144.646V144.736C40.6093 147.706 39.9433 149.002 38.7193 149.002ZM44.4184 150.424C45.6064 150.964 46.9564 151.27 48.2704 151.27H48.3964C50.7364 151.27 52.3204 149.848 52.3204 147.76C52.3204 143.962 47.1184 143.89 47.1184 141.658C47.1184 140.794 47.8744 140.218 49.0444 140.218H49.1524C50.0344 140.218 51.1144 140.416 52.0504 140.722L52.1944 138.508C51.2224 138.274 49.8724 138.13 48.6844 138.13H48.5584C45.9124 138.13 44.2924 139.408 44.2924 141.388C44.2924 144.916 49.5664 145.042 49.5664 147.508C49.5664 148.444 48.8824 149.056 47.8744 149.056H47.7664C46.8124 149.056 45.5884 148.678 44.6524 148.102L44.4184 150.424ZM53.5766 150.424C54.7646 150.964 56.1146 151.27 57.4286 151.27H57.5546C59.8946 151.27 61.4786 149.848 61.4786 147.76C61.4786 143.962 56.2766 143.89 56.2766 141.658C56.2766 140.794 57.0326 140.218 58.2026 140.218H58.3106C59.1926 140.218 60.2726 140.416 61.2086 140.722L61.3526 138.508C60.3806 138.274 59.0306 138.13 57.8426 138.13H57.7166C55.0706 138.13 53.4506 139.408 53.4506 141.388C53.4506 144.916 58.7246 145.042 58.7246 147.508C58.7246 148.444 58.0406 149.056 57.0326 149.056H56.9246C55.9706 149.056 54.7466 148.678 53.8106 148.102L53.5766 150.424ZM62.5188 144.682C62.5188 148.894 64.0668 151.27 66.8208 151.27H67.3068C69.9888 151.27 71.6088 149.038 71.6088 144.682C71.6088 140.344 69.9888 138.13 67.3068 138.13H66.8208C64.1208 138.13 62.5188 140.326 62.5188 144.682ZM67.0728 149.002C65.8488 149.002 65.1648 147.706 65.1648 144.736V144.646C65.1648 141.766 65.8668 140.488 67.0728 140.488C68.2788 140.488 68.9628 141.748 68.9628 144.646V144.736C68.9628 147.706 68.2968 149.002 67.0728 149.002ZM76.8149 150.424C78.0029 150.964 79.3529 151.27 80.6669 151.27H80.7929C83.1329 151.27 84.7169 149.848 84.7169 147.76C84.7169 143.962 79.5149 143.89 79.5149 141.658C79.5149 140.794 80.2709 140.218 81.4409 140.218H81.5489C82.4309 140.218 83.5109 140.416 84.4469 140.722L84.5909 138.508C83.6189 138.274 82.2689 138.13 81.0809 138.13H80.9549C78.3089 138.13 76.6889 139.408 76.6889 141.388C76.6889 144.916 81.9629 145.042 81.9629 147.508C81.9629 148.444 81.2789 149.056 80.2709 149.056H80.1629C79.2089 149.056 77.9849 148.678 77.0489 148.102L76.8149 150.424ZM88.7451 143.71C88.7451 142.72 88.7451 141.208 88.7451 140.524C89.8431 140.524 91.5171 140.56 92.6871 140.632L92.8131 138.4H86.1351C86.2611 142.504 86.2611 146.698 86.1351 151H92.7591L92.8851 148.732C91.6611 148.822 89.9511 148.822 88.7451 148.84C88.7451 148.174 88.7451 146.572 88.7451 145.546H92.1291L92.2371 143.71H88.7451ZM97.0604 151C97.0064 149.506 96.9884 147.49 96.9704 145.96H98.0144C98.3024 149.578 99.4724 151.27 101.56 151.27C102.028 151.27 102.568 151.162 102.82 151.036C102.784 150.01 102.748 149.614 102.73 148.66C102.586 148.732 102.208 148.786 101.902 148.786C100.57 148.786 99.7964 147.688 99.4904 145.366L99.4724 145.186H99.5624C101.578 145.204 102.532 144.07 102.532 141.91C102.532 139.552 101.416 138.4 99.0404 138.4H94.3604C94.4684 142.504 94.4684 146.698 94.3604 151H97.0604ZM96.9524 144.466L96.9704 140.56H98.6264C99.6884 140.56 100.012 141.208 100.012 142.54V142.612C100.012 143.836 99.6704 144.466 98.5724 144.466H96.9524ZM105.587 151H109.421L112.049 138.4H109.421L107.585 148.588H107.513L105.659 138.4H102.923L105.587 151ZM115.568 151C115.46 146.698 115.46 142.504 115.568 138.4H112.868C112.994 142.504 112.994 146.698 112.868 151H115.568ZM117.089 138.4C117.197 142.504 117.197 146.698 117.089 151H121.157C124.037 151 125.531 148.696 125.531 144.682C125.531 140.614 123.983 138.4 121.157 138.4H117.089ZM119.717 148.84C119.681 146.86 119.699 142.468 119.717 140.56H120.815C122.273 140.56 122.885 141.64 122.885 144.664V144.754C122.885 147.67 122.327 148.84 120.815 148.84H119.717ZM126.486 144.682C126.486 148.894 128.034 151.27 130.788 151.27H131.274C133.956 151.27 135.576 149.038 135.576 144.682C135.576 140.344 133.956 138.13 131.274 138.13H130.788C128.088 138.13 126.486 140.326 126.486 144.682ZM131.04 149.002C129.816 149.002 129.132 147.706 129.132 144.736V144.646C129.132 141.766 129.834 140.488 131.04 140.488C132.246 140.488 132.93 141.748 132.93 144.646V144.736C132.93 147.706 132.264 149.002 131.04 149.002ZM139.547 151C139.493 149.506 139.475 147.49 139.457 145.96H140.501C140.789 149.578 141.959 151.27 144.047 151.27C144.515 151.27 145.055 151.162 145.307 151.036C145.271 150.01 145.235 149.614 145.217 148.66C145.073 148.732 144.695 148.786 144.389 148.786C143.057 148.786 142.283 147.688 141.977 145.366L141.959 145.186H142.049C144.065 145.204 145.019 144.07 145.019 141.91C145.019 139.552 143.903 138.4 141.527 138.4H136.847C136.955 142.504 136.955 146.698 136.847 151H139.547ZM139.439 144.466L139.457 140.56H141.113C142.175 140.56 142.499 141.208 142.499 142.54V142.612C142.499 143.836 142.157 144.466 141.059 144.466H139.439ZM150.47 138.4C150.578 142.504 150.578 146.698 150.47 151H154.538C157.418 151 158.912 148.696 158.912 144.682C158.912 140.614 157.364 138.4 154.538 138.4H150.47ZM153.098 148.84C153.062 146.86 153.08 142.468 153.098 140.56H154.196C155.654 140.56 156.266 141.64 156.266 144.664V144.754C156.266 147.67 155.708 148.84 154.196 148.84H153.098ZM159.866 144.682C159.866 148.894 161.414 151.27 164.168 151.27H164.654C167.336 151.27 168.956 149.038 168.956 144.682C168.956 140.344 167.336 138.13 164.654 138.13H164.168C161.468 138.13 159.866 140.326 159.866 144.682ZM164.42 149.002C163.196 149.002 162.512 147.706 162.512 144.736V144.646C162.512 141.766 163.214 140.488 164.42 140.488C165.626 140.488 166.31 141.748 166.31 144.646V144.736C166.31 147.706 165.644 149.002 164.42 149.002ZM174.271 138.4C174.379 142.504 174.379 146.698 174.271 151H178.339C181.219 151 182.713 148.696 182.713 144.682C182.713 140.614 181.165 138.4 178.339 138.4H174.271ZM176.899 148.84C176.863 146.86 176.881 142.468 176.899 140.56H177.997C179.455 140.56 180.067 141.64 180.067 144.664V144.754C180.067 147.67 179.509 148.84 177.997 148.84H176.899ZM186.619 151C186.511 146.698 186.511 142.504 186.619 138.4H183.919C184.045 142.504 184.045 146.698 183.919 151H186.619ZM188.032 150.424C189.22 150.964 190.57 151.27 191.884 151.27H192.01C194.35 151.27 195.934 149.848 195.934 147.76C195.934 143.962 190.732 143.89 190.732 141.658C190.732 140.794 191.488 140.218 192.658 140.218H192.766C193.648 140.218 194.728 140.416 195.664 140.722L195.808 138.508C194.836 138.274 193.486 138.13 192.298 138.13H192.172C189.526 138.13 187.906 139.408 187.906 141.388C187.906 144.916 193.18 145.042 193.18 147.508C193.18 148.444 192.496 149.056 191.488 149.056H191.38C190.426 149.056 189.202 148.678 188.266 148.102L188.032 150.424ZM204.732 148.588C204.084 148.948 203.454 149.092 202.788 149.092C200.718 149.092 199.62 147.616 199.62 144.736V144.682C199.62 141.73 200.7 140.29 202.842 140.29C203.454 140.29 204.084 140.398 204.768 140.614L204.984 138.472C204.084 138.256 203.274 138.13 202.482 138.13H202.41C198.882 138.13 196.992 140.452 196.992 144.826C196.992 149.02 198.738 151.27 202.068 151.27H202.158C203.166 151.27 204.192 151.036 204.966 150.586L204.732 148.588ZM205.816 144.682C205.816 148.894 207.364 151.27 210.118 151.27H210.604C213.286 151.27 214.906 149.038 214.906 144.682C214.906 140.344 213.286 138.13 210.604 138.13H210.118C207.418 138.13 205.816 140.326 205.816 144.682ZM210.37 149.002C209.146 149.002 208.462 147.706 208.462 144.736V144.646C208.462 141.766 209.164 140.488 210.37 140.488C211.576 140.488 212.26 141.748 212.26 144.646V144.736C212.26 147.706 211.594 149.002 210.37 149.002ZM218.877 151C218.823 149.506 218.805 147.49 218.787 145.96H219.831C220.119 149.578 221.289 151.27 223.377 151.27C223.845 151.27 224.385 151.162 224.637 151.036C224.601 150.01 224.565 149.614 224.547 148.66C224.403 148.732 224.025 148.786 223.719 148.786C222.387 148.786 221.613 147.688 221.307 145.366L221.289 145.186H221.379C223.395 145.204 224.349 144.07 224.349 141.91C224.349 139.552 223.233 138.4 220.857 138.4H216.177C216.285 142.504 216.285 146.698 216.177 151H218.877ZM218.769 144.466L218.787 140.56H220.443C221.505 140.56 221.829 141.208 221.829 142.54V142.612C221.829 143.836 221.487 144.466 220.389 144.466H218.769ZM225.757 138.4C225.865 142.504 225.865 146.698 225.757 151H229.825C232.705 151 234.199 148.696 234.199 144.682C234.199 140.614 232.651 138.4 229.825 138.4H225.757ZM228.385 148.84C228.349 146.86 228.367 142.468 228.385 140.56H229.483C230.941 140.56 231.553 141.64 231.553 144.664V144.754C231.553 147.67 230.995 148.84 229.483 148.84H228.385ZM3.456 175.71C3.456 174.72 3.456 173.208 3.456 172.524C4.554 172.524 6.228 172.56 7.398 172.632L7.524 170.4H0.846C0.972 174.504 0.972 178.698 0.846 183H7.47L7.596 180.732C6.372 180.822 4.662 180.822 3.456 180.84C3.456 180.174 3.456 178.572 3.456 177.546H6.84L6.948 175.71H3.456ZM8.9633 182.424C10.1513 182.964 11.5013 183.27 12.8153 183.27H12.9413C15.2813 183.27 16.8653 181.848 16.8653 179.76C16.8653 175.962 11.6633 175.89 11.6633 173.658C11.6633 172.794 12.4193 172.218 13.5893 172.218H13.6973C14.5793 172.218 15.6593 172.416 16.5953 172.722L16.7393 170.508C15.7673 170.274 14.4173 170.13 13.2293 170.13H13.1033C10.4573 170.13 8.8373 171.408 8.8373 173.388C8.8373 176.916 14.1113 177.042 14.1113 179.508C14.1113 180.444 13.4273 181.056 12.4193 181.056H12.3113C11.3573 181.056 10.1333 180.678 9.1973 180.102L8.9633 182.424ZM18.1215 182.424C19.3095 182.964 20.6595 183.27 21.9735 183.27H22.0995C24.4395 183.27 26.0235 181.848 26.0235 179.76C26.0235 175.962 20.8215 175.89 20.8215 173.658C20.8215 172.794 21.5775 172.218 22.7475 172.218H22.8555C23.7375 172.218 24.8175 172.416 25.7535 172.722L25.8975 170.508C24.9255 170.274 23.5755 170.13 22.3875 170.13H22.2615C19.6155 170.13 17.9955 171.408 17.9955 173.388C17.9955 176.916 23.2695 177.042 23.2695 179.508C23.2695 180.444 22.5855 181.056 21.5775 181.056H21.4695C20.5155 181.056 19.2915 180.678 18.3555 180.102L18.1215 182.424ZM29.1739 183L29.8219 179.976H32.5939L33.2059 183H35.9779C34.9519 178.608 33.9619 174.414 33.1699 170.4H29.4079C28.5619 174.414 27.6079 178.608 26.5099 183H29.1739ZM30.0559 178.086L31.1719 172.704H31.2619L32.3599 178.086H30.0559ZM43.6229 183C43.5689 181.542 43.5509 179.76 43.5329 178.068H46.9349L47.0429 176.016H43.5329C43.5329 174.864 43.5329 173.586 43.5509 172.614C44.8109 172.632 46.2509 172.65 47.4569 172.722L47.6009 170.4H40.9229C41.0489 174.504 41.0489 178.698 40.9229 183H43.6229ZM51.374 175.71C51.374 174.72 51.374 173.208 51.374 172.524C52.472 172.524 54.146 172.56 55.316 172.632L55.442 170.4H48.764C48.89 174.504 48.89 178.698 48.764 183H55.388L55.514 180.732C54.29 180.822 52.58 180.822 51.374 180.84C51.374 180.174 51.374 178.572 51.374 177.546H54.758L54.866 175.71H51.374ZM59.6893 183C59.6353 181.506 59.6173 179.49 59.5993 177.96H60.6433C60.9313 181.578 62.1013 183.27 64.1893 183.27C64.6573 183.27 65.1973 183.162 65.4493 183.036C65.4133 182.01 65.3773 181.614 65.3593 180.66C65.2153 180.732 64.8373 180.786 64.5313 180.786C63.1993 180.786 62.4253 179.688 62.1193 177.366L62.1013 177.186H62.1913C64.2073 177.204 65.1613 176.07 65.1613 173.91C65.1613 171.552 64.0453 170.4 61.6693 170.4H56.9893C57.0973 174.504 57.0973 178.698 56.9893 183H59.6893ZM59.5813 176.466L59.5993 172.56H61.2553C62.3173 172.56 62.6413 173.208 62.6413 174.54V174.612C62.6413 175.836 62.2993 176.466 61.2013 176.466H59.5813ZM69.2693 183C69.2153 181.506 69.1973 179.49 69.1793 177.96H70.2233C70.5113 181.578 71.6813 183.27 73.7693 183.27C74.2373 183.27 74.7773 183.162 75.0293 183.036C74.9933 182.01 74.9573 181.614 74.9393 180.66C74.7953 180.732 74.4173 180.786 74.1113 180.786C72.7793 180.786 72.0053 179.688 71.6993 177.366L71.6813 177.186H71.7713C73.7873 177.204 74.7413 176.07 74.7413 173.91C74.7413 171.552 73.6253 170.4 71.2493 170.4H66.5693C66.6773 174.504 66.6773 178.698 66.5693 183H69.2693ZM69.1613 176.466L69.1793 172.56H70.8353C71.8973 172.56 72.2213 173.208 72.2213 174.54V174.612C72.2213 175.836 71.8793 176.466 70.7813 176.466H69.1613ZM78.1114 183L78.7594 179.976H81.5314L82.1434 183H84.9154C83.8894 178.608 82.8994 174.414 82.1074 170.4H78.3454C77.4994 174.414 76.5454 178.608 75.4474 183H78.1114ZM78.9934 178.086L80.1094 172.704H80.1994L81.2974 178.086H78.9934ZM88.5354 183C88.4634 181.056 88.3194 176.844 88.2654 174.9H88.3374L90.3354 183H92.0634L93.9714 174.9H94.0614C94.0074 177.6 93.9174 180.3 93.8634 183H96.4914C96.3654 178.698 96.3654 174.504 96.4914 170.4H93.1614L91.2174 179.094H91.1454L89.1474 170.4H85.8174C85.9434 174.504 85.9434 178.698 85.8174 183H88.5354ZM100.716 175.71C100.716 174.72 100.716 173.208 100.716 172.524C101.814 172.524 103.488 172.56 104.658 172.632L104.784 170.4H98.1058C98.2318 174.504 98.2318 178.698 98.1058 183H104.73L104.856 180.732C103.632 180.822 101.922 180.822 100.716 180.84C100.716 180.174 100.716 178.572 100.716 177.546H104.1L104.208 175.71H100.716ZM108.977 183C108.977 181.524 108.923 176.916 108.905 175.476H108.977L111.659 183H114.575C114.431 178.698 114.431 174.504 114.575 170.4H111.929C111.983 171.462 112.019 175.998 112.163 178.374H112.091L109.265 170.4H106.313C106.457 174.504 106.457 178.698 106.313 183H108.977ZM121.036 183C120.946 180.066 120.91 175.386 120.946 172.542C121.756 172.56 122.944 172.578 123.79 172.632L123.934 170.4H115.546V172.632C116.464 172.578 117.598 172.56 118.408 172.542C118.462 175.386 118.408 180.066 118.318 183H121.036ZM125.274 183L125.922 179.976H128.694L129.306 183H132.078C131.052 178.608 130.062 174.414 129.27 170.4H125.508C124.662 174.414 123.708 178.608 122.61 183H125.274ZM126.156 178.086L127.272 172.704H127.362L128.46 178.086H126.156ZM138.138 168.384C138.21 168.528 138.372 168.96 138.426 169.086L142.134 168.06C142.026 167.754 141.612 166.638 141.45 166.08L138.138 168.384ZM139.686 175.71C139.686 174.72 139.686 173.208 139.686 172.524C140.784 172.524 142.458 172.56 143.628 172.632L143.754 170.4H137.076C137.202 174.504 137.202 178.698 137.076 183H143.7L143.826 180.732C142.602 180.822 140.892 180.822 139.686 180.84C139.686 180.174 139.686 178.572 139.686 177.546H143.07L143.178 175.71H139.686ZM152.009 175.71C152.009 174.72 152.009 173.208 152.009 172.524C153.107 172.524 154.781 172.56 155.951 172.632L156.077 170.4H149.399C149.525 174.504 149.525 178.698 149.399 183H156.023L156.149 180.732C154.925 180.822 153.215 180.822 152.009 180.84C152.009 180.174 152.009 178.572 152.009 177.546H155.393L155.501 175.71H152.009ZM160.018 183C160.414 181.578 161.152 179.364 161.584 177.978H161.656C162.106 179.364 162.862 181.578 163.312 183H166.462C165.526 180.768 164.59 178.572 163.744 176.412C164.518 174.468 165.382 172.38 166.21 170.4H163.276C162.916 171.588 162.196 173.784 161.8 174.99H161.728C161.35 173.784 160.648 171.588 160.27 170.4H157.138C157.984 172.452 158.812 174.432 159.586 176.448C158.74 178.644 157.858 180.75 156.958 183H160.018ZM173.917 180.588C173.269 180.948 172.639 181.092 171.973 181.092C169.903 181.092 168.805 179.616 168.805 176.736V176.682C168.805 173.73 169.885 172.29 172.027 172.29C172.639 172.29 173.269 172.398 173.953 172.614L174.169 170.472C173.269 170.256 172.459 170.13 171.667 170.13H171.595C168.067 170.13 166.177 172.452 166.177 176.826C166.177 181.02 167.923 183.27 171.253 183.27H171.343C172.351 183.27 173.377 183.036 174.151 182.586L173.917 180.588ZM182.031 183L182.193 180.714C180.987 180.804 179.457 180.804 178.287 180.804C178.251 177.528 178.269 173.766 178.359 170.4H175.677C175.785 174.504 175.785 178.698 175.677 183H182.031ZM183.057 170.4C183.129 172.398 183.129 176.952 183.129 177.672C183.129 181.812 184.299 183.27 187.053 183.27H187.377C190.095 183.27 191.265 181.758 191.265 177.618C191.265 176.988 191.265 172.398 191.337 170.4H188.655C188.745 172.47 188.781 176.106 188.781 177.312C188.781 180.156 188.349 181.056 187.215 181.056C186.099 181.056 185.649 180.21 185.649 177.204C185.649 176.214 185.685 172.434 185.757 170.4H183.057ZM192.707 182.424C193.895 182.964 195.245 183.27 196.559 183.27H196.685C199.025 183.27 200.609 181.848 200.609 179.76C200.609 175.962 195.407 175.89 195.407 173.658C195.407 172.794 196.163 172.218 197.333 172.218H197.441C198.323 172.218 199.403 172.416 200.339 172.722L200.483 170.508C199.511 170.274 198.161 170.13 196.973 170.13H196.847C194.201 170.13 192.581 171.408 192.581 173.388C192.581 176.916 197.855 177.042 197.855 179.508C197.855 180.444 197.171 181.056 196.163 181.056H196.055C195.101 181.056 193.877 180.678 192.941 180.102L192.707 182.424ZM204.602 183C204.494 178.698 204.494 174.504 204.602 170.4H201.902C202.028 174.504 202.028 178.698 201.902 183H204.602ZM208.12 183H211.954L214.582 170.4H211.954L210.118 180.588H210.046L208.192 170.4H205.456L208.12 183ZM216.363 183L217.011 179.976H219.783L220.395 183H223.167C222.141 178.608 221.151 174.414 220.359 170.4H216.597C215.751 174.414 214.797 178.608 213.699 183H216.363ZM217.245 178.086L218.361 172.704H218.451L219.549 178.086H217.245ZM3.492 199C3.456 197.83 3.438 195.724 3.42 194.59H5.292C7.848 194.59 9.036 193.276 9.036 190.468C9.036 187.66 7.848 186.4 5.238 186.4H0.792C0.918 190.504 0.918 194.698 0.792 199H3.492ZM3.384 192.898L3.402 188.56H5.022C6.048 188.56 6.534 189.28 6.534 190.63V190.702C6.534 192.25 6.102 192.898 5.022 192.898H3.384ZM10.8399 199L11.4879 195.976H14.2599L14.8719 199H17.6439C16.6179 194.608 15.6279 190.414 14.8359 186.4H11.0739C10.2279 190.414 9.27394 194.608 8.17594 199H10.8399ZM11.7219 194.086L12.8379 188.704H12.9279L14.0259 194.086H11.7219ZM21.2459 199C21.1919 197.506 21.1739 195.49 21.1559 193.96H22.1999C22.4879 197.578 23.6579 199.27 25.7459 199.27C26.2139 199.27 26.7539 199.162 27.0059 199.036C26.9699 198.01 26.9339 197.614 26.9159 196.66C26.7719 196.732 26.3939 196.786 26.0879 196.786C24.7559 196.786 23.9819 195.688 23.6759 193.366L23.6579 193.186H23.7479C25.7639 193.204 26.7179 192.07 26.7179 189.91C26.7179 187.552 25.6019 186.4 23.2259 186.4H18.5459C18.6539 190.504 18.6539 194.698 18.5459 199H21.2459ZM21.1379 192.466L21.1559 188.56H22.8119C23.8739 188.56 24.1979 189.208 24.1979 190.54V190.612C24.1979 191.836 23.8559 192.466 22.7579 192.466H21.1379ZM30.088 199L30.736 195.976H33.508L34.12 199H36.892C35.866 194.608 34.876 190.414 34.084 186.4H30.322C29.476 190.414 28.522 194.608 27.424 199H30.088ZM30.97 194.086L32.086 188.704H32.176L33.274 194.086H30.97ZM44.5549 199C44.4829 197.056 44.3389 192.844 44.2849 190.9H44.3569L46.3549 199H48.0829L49.9909 190.9H50.0809C50.0269 193.6 49.9369 196.3 49.8829 199H52.5109C52.3849 194.698 52.3849 190.504 52.5109 186.4H49.1809L47.2369 195.094H47.1649L45.1669 186.4H41.8369C41.9629 190.504 41.9629 194.698 41.8369 199H44.5549ZM56.7353 191.71C56.7353 190.72 56.7353 189.208 56.7353 188.524C57.8333 188.524 59.5073 188.56 60.6773 188.632L60.8033 186.4H54.1253C54.2513 190.504 54.2513 194.698 54.1253 199H60.7493L60.8753 196.732C59.6513 196.822 57.9413 196.822 56.7353 196.84C56.7353 196.174 56.7353 194.572 56.7353 193.546H60.1193L60.2273 191.71H56.7353ZM65.0686 199C64.9966 197.056 64.8526 192.844 64.7986 190.9H64.8706L66.8686 199H68.5966L70.5046 190.9H70.5946C70.5406 193.6 70.4506 196.3 70.3966 199H73.0246C72.8986 194.698 72.8986 190.504 73.0246 186.4H69.6946L67.7506 195.094H67.6786L65.6806 186.4H62.3506C62.4766 190.504 62.4766 194.698 62.3506 199H65.0686ZM80.273 192.628V192.502H80.327C81.821 192.502 82.667 191.386 82.667 189.496C82.667 187.462 81.587 186.4 79.445 186.4H74.585C74.711 190.504 74.711 194.698 74.585 199H79.643C81.767 199 82.919 197.758 82.919 195.598C82.919 193.654 82.037 192.628 80.327 192.628H80.273ZM77.195 191.818C77.177 190.9 77.195 189.568 77.213 188.47H78.905C79.769 188.47 80.183 188.938 80.183 190.126V190.162C80.183 191.296 79.733 191.818 78.779 191.818H77.195ZM77.195 196.984C77.159 196.048 77.177 194.428 77.195 193.33H78.779C79.787 193.33 80.309 193.942 80.309 195.184V195.22C80.309 196.48 79.841 196.984 78.905 196.984H77.195ZM86.8826 199C86.8286 197.506 86.8106 195.49 86.7926 193.96H87.8366C88.1246 197.578 89.2946 199.27 91.3826 199.27C91.8506 199.27 92.3906 199.162 92.6426 199.036C92.6066 198.01 92.5706 197.614 92.5526 196.66C92.4086 196.732 92.0306 196.786 91.7246 196.786C90.3926 196.786 89.6186 195.688 89.3126 193.366L89.2946 193.186H89.3846C91.4006 193.204 92.3546 192.07 92.3546 189.91C92.3546 187.552 91.2386 186.4 88.8626 186.4H84.1826C84.2906 190.504 84.2906 194.698 84.1826 199H86.8826ZM86.7746 192.466L86.7926 188.56H88.4486C89.5106 188.56 89.8346 189.208 89.8346 190.54V190.612C89.8346 191.836 89.4926 192.466 88.3946 192.466H86.7746ZM93.4387 192.682C93.4387 196.894 94.9867 199.27 97.7407 199.27H98.2267C100.909 199.27 102.529 197.038 102.529 192.682C102.529 188.344 100.909 186.13 98.2267 186.13H97.7407C95.0407 186.13 93.4387 188.326 93.4387 192.682ZM97.9927 197.002C96.7687 197.002 96.0847 195.706 96.0847 192.736V192.646C96.0847 189.766 96.7867 188.488 97.9927 188.488C99.1987 188.488 99.8827 189.748 99.8827 192.646V192.736C99.8827 195.706 99.2167 197.002 97.9927 197.002ZM103.692 198.424C104.88 198.964 106.23 199.27 107.544 199.27H107.67C110.01 199.27 111.594 197.848 111.594 195.76C111.594 191.962 106.392 191.89 106.392 189.658C106.392 188.794 107.148 188.218 108.318 188.218H108.426C109.308 188.218 110.388 188.416 111.324 188.722L111.468 186.508C110.496 186.274 109.146 186.13 107.958 186.13H107.832C105.186 186.13 103.566 187.408 103.566 189.388C103.566 192.916 108.84 193.042 108.84 195.508C108.84 196.444 108.156 197.056 107.148 197.056H107.04C106.086 197.056 104.862 196.678 103.926 196.102L103.692 198.424ZM117.001 186.4C117.109 190.504 117.109 194.698 117.001 199H121.069C123.949 199 125.443 196.696 125.443 192.682C125.443 188.614 123.895 186.4 121.069 186.4H117.001ZM119.629 196.84C119.593 194.86 119.611 190.468 119.629 188.56H120.727C122.185 188.56 122.797 189.64 122.797 192.664V192.754C122.797 195.67 122.239 196.84 120.727 196.84H119.629ZM126.398 192.682C126.398 196.894 127.946 199.27 130.7 199.27H131.186C133.868 199.27 135.488 197.038 135.488 192.682C135.488 188.344 133.868 186.13 131.186 186.13H130.7C128 186.13 126.398 188.326 126.398 192.682ZM130.952 197.002C129.728 197.002 129.044 195.706 129.044 192.736V192.646C129.044 189.766 129.746 188.488 130.952 188.488C132.158 188.488 132.842 189.748 132.842 192.646V192.736C132.842 195.706 132.176 197.002 130.952 197.002ZM140.694 198.424C141.882 198.964 143.232 199.27 144.546 199.27H144.672C147.012 199.27 148.596 197.848 148.596 195.76C148.596 191.962 143.394 191.89 143.394 189.658C143.394 188.794 144.15 188.218 145.32 188.218H145.428C146.31 188.218 147.39 188.416 148.326 188.722L148.47 186.508C147.498 186.274 146.148 186.13 144.96 186.13H144.834C142.188 186.13 140.568 187.408 140.568 189.388C140.568 192.916 145.842 193.042 145.842 195.508C145.842 196.444 145.158 197.056 144.15 197.056H144.042C143.088 197.056 141.864 196.678 140.928 196.102L140.694 198.424ZM152.624 191.71C152.624 190.72 152.624 189.208 152.624 188.524C153.722 188.524 155.396 188.56 156.566 188.632L156.692 186.4H150.014C150.14 190.504 150.14 194.698 150.014 199H156.638L156.764 196.732C155.54 196.822 153.83 196.822 152.624 196.84C152.624 196.174 152.624 194.572 152.624 193.546H156.008L156.116 191.71H152.624ZM160.939 199C160.885 197.506 160.867 195.49 160.849 193.96H161.893C162.181 197.578 163.351 199.27 165.439 199.27C165.907 199.27 166.447 199.162 166.699 199.036C166.663 198.01 166.627 197.614 166.609 196.66C166.465 196.732 166.087 196.786 165.781 196.786C164.449 196.786 163.675 195.688 163.369 193.366L163.351 193.186H163.441C165.457 193.204 166.411 192.07 166.411 189.91C166.411 187.552 165.295 186.4 162.919 186.4H158.239C158.347 190.504 158.347 194.698 158.239 199H160.939ZM160.831 192.466L160.849 188.56H162.505C163.567 188.56 163.891 189.208 163.891 190.54V190.612C163.891 191.836 163.549 192.466 162.451 192.466H160.831ZM169.466 199H173.3L175.928 186.4H173.3L171.464 196.588H171.392L169.538 186.4H166.802L169.466 199ZM179.447 199C179.339 194.698 179.339 190.504 179.447 186.4H176.747C176.873 190.504 176.873 194.698 176.747 199H179.447ZM180.968 186.4C181.076 190.504 181.076 194.698 180.968 199H185.036C187.916 199 189.41 196.696 189.41 192.682C189.41 188.614 187.862 186.4 185.036 186.4H180.968ZM183.596 196.84C183.56 194.86 183.578 190.468 183.596 188.56H184.694C186.152 188.56 186.764 189.64 186.764 192.664V192.754C186.764 195.67 186.206 196.84 184.694 196.84H183.596ZM190.364 192.682C190.364 196.894 191.912 199.27 194.666 199.27H195.152C197.834 199.27 199.454 197.038 199.454 192.682C199.454 188.344 197.834 186.13 195.152 186.13H194.666C191.966 186.13 190.364 188.326 190.364 192.682ZM194.918 197.002C193.694 197.002 193.01 195.706 193.01 192.736V192.646C193.01 189.766 193.712 188.488 194.918 188.488C196.124 188.488 196.808 189.748 196.808 192.646V192.736C196.808 195.706 196.142 197.002 194.918 197.002ZM203.426 199C203.372 197.506 203.354 195.49 203.336 193.96H204.38C204.668 197.578 205.838 199.27 207.926 199.27C208.394 199.27 208.934 199.162 209.186 199.036C209.15 198.01 209.114 197.614 209.096 196.66C208.952 196.732 208.574 196.786 208.268 196.786C206.936 196.786 206.162 195.688 205.856 193.366L205.838 193.186H205.928C207.944 193.204 208.898 192.07 208.898 189.91C208.898 187.552 207.782 186.4 205.406 186.4H200.726C200.834 190.504 200.834 194.698 200.726 199H203.426ZM203.318 192.466L203.336 188.56H204.992C206.054 188.56 206.378 189.208 206.378 190.54V190.612C206.378 191.836 206.036 192.466 204.938 192.466H203.318ZM214.349 186.4C214.457 190.504 214.457 194.698 214.349 199H218.417C221.297 199 222.791 196.696 222.791 192.682C222.791 188.614 221.243 186.4 218.417 186.4H214.349ZM216.977 196.84C216.941 194.86 216.959 190.468 216.977 188.56H218.075C219.533 188.56 220.145 189.64 220.145 192.664V192.754C220.145 195.67 219.587 196.84 218.075 196.84H216.977ZM223.745 192.682C223.745 196.894 225.293 199.27 228.047 199.27H228.533C231.215 199.27 232.835 197.038 232.835 192.682C232.835 188.344 231.215 186.13 228.533 186.13H228.047C225.347 186.13 223.745 188.326 223.745 192.682ZM228.299 197.002C227.075 197.002 226.391 195.706 226.391 192.736V192.646C226.391 189.766 227.093 188.488 228.299 188.488C229.505 188.488 230.189 189.748 230.189 192.646V192.736C230.189 195.706 229.523 197.002 228.299 197.002ZM0.684 214.424C1.872 214.964 3.222 215.27 4.536 215.27H4.662C7.002 215.27 8.586 213.848 8.586 211.76C8.586 207.962 3.384 207.89 3.384 205.658C3.384 204.794 4.14 204.218 5.31 204.218H5.418C6.3 204.218 7.38 204.416 8.316 204.722L8.46 202.508C7.488 202.274 6.138 202.13 4.95 202.13H4.824C2.178 202.13 0.558 203.408 0.558 205.388C0.558 208.916 5.832 209.042 5.832 211.508C5.832 212.444 5.148 213.056 4.14 213.056H4.032C3.078 213.056 1.854 212.678 0.918 212.102L0.684 214.424ZM14.8462 215C14.7562 212.066 14.7202 207.386 14.7562 204.542C15.5662 204.56 16.7542 204.578 17.6002 204.632L17.7442 202.4H9.3562V204.632C10.2742 204.578 11.4082 204.56 12.2182 204.542C12.2722 207.386 12.2182 212.066 12.1282 215H14.8462ZM19.0841 215L19.7321 211.976H22.5041L23.1161 215H25.8881C24.8621 210.608 23.8721 206.414 23.0801 202.4H19.3181C18.4721 206.414 17.5181 210.608 16.4201 215H19.0841ZM19.9661 210.086L21.0821 204.704H21.1721L22.2701 210.086H19.9661ZM29.418 215C29.31 210.698 29.31 206.504 29.418 202.4H26.718C26.844 206.504 26.844 210.698 26.718 215H29.418ZM33.6385 215C33.5845 213.506 33.5665 211.49 33.5485 209.96H34.5925C34.8805 213.578 36.0505 215.27 38.1385 215.27C38.6065 215.27 39.1465 215.162 39.3985 215.036C39.3625 214.01 39.3265 213.614 39.3085 212.66C39.1645 212.732 38.7865 212.786 38.4805 212.786C37.1485 212.786 36.3745 211.688 36.0685 209.366L36.0505 209.186H36.1405C38.1565 209.204 39.1105 208.07 39.1105 205.91C39.1105 203.552 37.9945 202.4 35.6185 202.4H30.9385C31.0465 206.504 31.0465 210.698 30.9385 215H33.6385ZM33.5305 208.466L33.5485 204.56H35.2045C36.2665 204.56 36.5905 205.208 36.5905 206.54V206.612C36.5905 207.836 36.2485 208.466 35.1505 208.466H33.5305ZM43.461 210.986C43.209 208.79 42.417 204.362 42.165 202.4H39.519C40.167 206.45 40.833 210.644 41.427 215H45.009C45.333 212.66 45.981 208.664 46.269 206.558H46.323C46.593 208.664 47.277 212.66 47.583 215H51.183C51.759 210.644 52.389 206.45 53.091 202.4H50.445C50.157 204.542 49.401 208.88 49.131 211.076H49.077C48.771 208.88 48.051 204.542 47.781 202.4H44.829C44.595 204.362 43.839 208.79 43.533 210.986H43.461ZM54.8731 215L55.5211 211.976H58.2931L58.9051 215H61.6771C60.6511 210.608 59.6611 206.414 58.8691 202.4H55.1071C54.2611 206.414 53.3071 210.608 52.2091 215H54.8731ZM55.7551 210.086L56.8711 204.704H56.9611L58.0591 210.086H55.7551ZM66.3121 215C66.2761 213.686 66.2401 211.94 66.2221 210.572C67.1401 207.836 68.1301 205.244 69.1921 202.4H66.2761C65.9161 203.948 65.0881 206.792 64.7821 208.25H64.7281C64.4041 206.792 63.5581 204.002 63.1801 202.4H60.0661C61.1821 205.352 62.2621 208.124 63.1081 210.68C63.0901 212.03 63.0541 213.812 63.0181 215H66.3121ZM78.9888 215C78.8988 212.066 78.8628 207.386 78.8988 204.542C79.7088 204.56 80.8968 204.578 81.7428 204.632L81.8868 202.4H73.4988V204.632C74.4168 204.578 75.5508 204.56 76.3608 204.542C76.4148 207.386 76.3608 212.066 76.2708 215H78.9888ZM82.0305 208.682C82.0305 212.894 83.5785 215.27 86.3325 215.27H86.8185C89.5005 215.27 91.1205 213.038 91.1205 208.682C91.1205 204.344 89.5005 202.13 86.8185 202.13H86.3325C83.6325 202.13 82.0305 204.326 82.0305 208.682ZM86.5845 213.002C85.3605 213.002 84.6765 211.706 84.6765 208.736V208.646C84.6765 205.766 85.3785 204.488 86.5845 204.488C87.7905 204.488 88.4745 205.748 88.4745 208.646V208.736C88.4745 211.706 87.8085 213.002 86.5845 213.002ZM96.4346 202.4C96.5426 206.504 96.5426 210.698 96.4346 215H100.503C103.383 215 104.877 212.696 104.877 208.682C104.877 204.614 103.329 202.4 100.503 202.4H96.4346ZM99.0626 212.84C99.0266 210.86 99.0446 206.468 99.0626 204.56H100.161C101.619 204.56 102.231 205.64 102.231 208.664V208.754C102.231 211.67 101.673 212.84 100.161 212.84H99.0626ZM106.065 202.4C106.137 204.398 106.137 208.952 106.137 209.672C106.137 213.812 107.307 215.27 110.061 215.27H110.385C113.103 215.27 114.273 213.758 114.273 209.618C114.273 208.988 114.273 204.398 114.345 202.4H111.663C111.753 204.47 111.789 208.106 111.789 209.312C111.789 212.156 111.357 213.056 110.223 213.056C109.107 213.056 108.657 212.21 108.657 209.204C108.657 208.214 108.693 204.434 108.765 202.4H106.065ZM118.469 215C118.469 213.524 118.415 208.916 118.397 207.476H118.469L121.151 215H124.067C123.923 210.698 123.923 206.504 124.067 202.4H121.421C121.475 203.462 121.511 207.998 121.655 210.374H121.583L118.757 202.4H115.805C115.949 206.504 115.949 210.698 115.805 215H118.469ZM131.122 209.096C131.14 209.78 131.176 212.3 131.194 213.002C130.834 213.128 130.51 213.182 130.24 213.182C128.818 213.182 127.99 211.616 127.99 208.97V208.844C127.99 205.82 129.052 204.29 131.122 204.29C131.77 204.29 132.598 204.434 133.318 204.668L133.552 202.472C132.4 202.22 131.68 202.13 130.852 202.13H130.6C127.216 202.13 125.344 204.56 125.344 208.952C125.344 213.02 127.072 215.27 130.276 215.27H130.348C131.446 215.27 132.598 215.036 133.606 214.64C133.534 213.308 133.48 210.41 133.48 209.096H131.122ZM137.63 207.71C137.63 206.72 137.63 205.208 137.63 204.524C138.728 204.524 140.402 204.56 141.572 204.632L141.698 202.4H135.02C135.146 206.504 135.146 210.698 135.02 215H141.644L141.77 212.732C140.546 212.822 138.836 212.822 137.63 212.84C137.63 212.174 137.63 210.572 137.63 209.546H141.014L141.122 207.71H137.63ZM142.921 208.682C142.921 212.894 144.469 215.27 147.223 215.27H147.709C150.391 215.27 152.011 213.038 152.011 208.682C152.011 204.344 150.391 202.13 147.709 202.13H147.223C144.523 202.13 142.921 204.326 142.921 208.682ZM147.475 213.002C146.251 213.002 145.567 211.706 145.567 208.736V208.646C145.567 205.766 146.269 204.488 147.475 204.488C148.681 204.488 149.365 205.748 149.365 208.646V208.736C149.365 211.706 148.699 213.002 147.475 213.002ZM155.928 215C155.928 213.524 155.874 208.916 155.856 207.476H155.928L158.61 215H161.526C161.382 210.698 161.382 206.504 161.526 202.4H158.88C158.934 203.462 158.97 207.998 159.114 210.374H159.042L156.216 202.4H153.264C153.408 206.504 153.408 210.698 153.264 215H155.928Z" fill="#36393E"/>
<path d="M40.4086 0.0384006C36.6131 0.205406 33.068 0.911381 29.0143 2.29297C22.9946 4.35017 19.5027 6.39218 15.0239 10.4914C11.9798 13.2773 10.3705 15.4712 8.02485 20.0259C6.31685 23.3508 5.46664 25.3169 4.50257 28.1484C2.51369 34.0391 0.767729 43.0194 0.213576 50.2765C-0.0445229 53.647 -0.0672963 59.1582 0.137664 67.5084C0.160438 68.2827 0.190802 70.1957 0.213576 71.7594C0.236349 73.3232 0.266714 75.4791 0.289487 76.5419C0.31226 77.6046 0.342625 79.6542 0.365398 81.0965C0.426128 85.0515 0.479265 87.716 0.517221 88.7256C0.691817 93.0222 0.722182 95.7247 0.669044 101.251C0.608315 107.423 0.593133 109.783 0.615906 112.046C0.631088 113.207 0.64627 113.359 0.760137 113.427C0.896778 113.496 1.57239 113.511 13.3842 113.7C25.0973 113.89 29.3256 113.966 33.7284 114.042C39.0422 114.133 40.4086 114.156 54.7559 114.384C61.1248 114.49 67.4559 114.581 68.8374 114.589L71.3349 114.611L71.4108 114.346C71.464 114.171 71.4867 110.231 71.4943 103.111C71.4943 92.9387 71.4867 92.0885 71.3577 91.4205C71.0616 89.8415 70.6289 88.9154 69.7939 88.0804C69.1031 87.3972 68.4123 87.0252 67.3344 86.7519C66.2337 86.4711 64.8445 86.4027 61.6031 86.4635L58.7792 86.509L58.931 86.1522C59.0904 85.8106 59.0904 85.7195 59.0449 83.3132C59.0069 81.4761 59.0221 80.2236 59.1132 78.4928C59.3637 73.7256 59.2498 71.7898 58.5894 69.1785C57.7164 65.7397 56.3424 63.6369 54.3004 62.6121C53.0175 61.9669 51.8333 61.7391 49.556 61.686L47.8783 61.6481V61.1015C47.8707 60.8054 47.81 60.0691 47.7493 59.4618C47.6809 58.8545 47.5595 57.2983 47.4684 56.0078C47.1875 51.7189 46.9142 49.7452 46.1399 46.5189C44.9102 41.3645 43.2325 39.778 38.5488 39.3453C38.0933 39.3073 37.5164 39.2694 37.2659 39.2694H36.818L36.8636 38.943C37.0989 37.2122 37.1217 28.8543 36.8863 27.2526C36.5068 24.5957 35.6262 23.0244 33.9638 22.0375C32.1343 20.952 29.1965 20.6028 22.6454 20.7015C20.7856 20.7242 18.2957 20.7698 17.1114 20.8002L14.948 20.8457L15.1605 20.4737C16.2233 18.6291 17.4758 17.0729 19.1914 15.4788C23.2147 11.7363 26.4941 9.87651 32.1723 8.09259C36.3322 6.78692 38.6019 6.49846 46.102 6.33145C47.4988 6.30109 48.9714 6.30109 49.3662 6.33904C49.7609 6.36941 50.7705 6.45291 51.6056 6.51364C54.3308 6.7186 55.7048 6.93115 57.7544 7.46253C61.4133 8.40383 65.3531 9.95242 67.6988 11.372C69.6345 12.541 72.0485 14.5071 73.9615 16.4732C75.7606 18.3103 76.8005 19.9044 78.7287 23.7455C80.3911 27.0704 81.1427 28.9075 82.046 31.906C83.754 37.569 85.2115 46.0103 85.5835 52.3261C85.6518 53.5711 85.6822 61.2078 85.6214 62.3844C85.6063 62.6729 85.5683 64.4036 85.5455 66.2179C85.5152 68.0322 85.4848 70.2184 85.462 71.0762C85.4393 71.934 85.4089 73.8242 85.3861 75.2893C85.2495 84.467 85.2267 85.7879 85.0673 90.6993C84.9762 93.8345 84.961 95.9296 85.0066 101.706C85.0749 110.74 85.0673 112.099 84.9762 114.019L84.9306 114.87L85.462 114.907C85.7581 114.93 87.1548 114.968 88.582 114.983C90.5633 115.014 91.2009 115.006 91.292 114.93C91.3907 114.862 91.4362 114.672 91.4742 114.232C91.5349 113.518 91.5425 107.749 91.497 99.3532C91.4742 95.4362 91.4894 92.5136 91.5501 90.9271C91.664 88.0348 91.7095 86.1674 91.7627 82.8045C91.8538 77.3693 91.96 71.1825 92.0739 64.6238C92.1954 57.8069 92.1802 53.5863 92.0284 51.3393C91.664 46.1242 90.829 40.6282 89.5157 34.8665C88.1417 28.8088 86.669 24.8235 83.8223 19.4262C81.6057 15.2207 80.1938 13.3381 77.1118 10.4762C73.0885 6.73378 69.6497 4.65381 64.2448 2.68012C61.0034 1.4959 57.8075 0.683647 55.0595 0.326864C52.5089 0.000444885 49.351 -0.0906487 47.1268 0.0991296C46.3373 0.16745 45.8059 0.16745 45.0392 0.106721C43.7032 -0.00714625 41.9724 -0.0299197 40.4086 0.0384006ZM27.9971 23.7076C31.5953 23.9353 32.8706 24.3984 33.4703 25.7116C33.6905 26.1975 33.941 27.2526 33.9714 27.8371L33.9941 28.285L32.362 28.2698C31.4663 28.2622 28.9384 28.2243 26.7446 28.1863C24.5508 28.1484 20.2694 28.0801 17.2177 28.0345C14.1737 27.9814 11.6382 27.9358 11.5851 27.9206C11.5244 27.8979 11.5927 27.6625 11.7976 27.1843C12.0557 26.5922 13.2931 23.9505 13.3538 23.8746C13.3614 23.8594 15.0011 23.8062 16.9976 23.7531C21.5523 23.6316 26.4106 23.6089 27.9971 23.7076ZM35.7401 42.192C39.6192 42.2603 40.8945 42.5336 41.7599 43.4749C42.2305 43.9911 42.6025 44.773 42.9365 45.9116C43.187 46.7618 43.1946 46.8226 43.0655 46.8453C42.9896 46.8605 38.7462 46.7998 33.6373 46.7163C28.5285 46.6252 22.2051 46.5189 19.571 46.481C10.1883 46.3215 7.22019 46.2608 7.18983 46.2305C7.15187 46.1925 7.58457 43.2471 7.6453 43.1485C7.67566 43.1029 7.78194 43.065 7.88062 43.065C7.97172 43.065 8.44996 42.9966 8.93579 42.9131C10.454 42.655 12.1013 42.5336 15.282 42.4577C16.9748 42.4197 19.7228 42.3286 21.3928 42.2679C23.0629 42.1996 24.991 42.1388 25.6818 42.1312C27.2684 42.1085 33.1515 42.1464 35.7401 42.192ZM14.8645 64.3733C18.0224 64.5403 25.6439 64.5555 28.9081 64.4036C31.8838 64.2594 36.0817 64.2746 38.8904 64.434C40.2113 64.5099 43.1946 64.5858 46.1779 64.6238C51.5296 64.6845 51.5904 64.6921 52.6152 65.0717C53.5185 65.4133 54.2852 66.2027 54.8622 67.3945C55.2038 68.0929 55.6289 69.3151 55.7124 69.8541L55.7579 70.1577L54.5585 70.1198C53.8905 70.1046 51.1349 70.0514 48.4173 70.0135C45.7072 69.9679 39.3838 69.8693 34.3737 69.7858C9.51272 69.3758 6.74195 69.3227 6.69641 69.2392C6.64327 69.1557 6.55976 64.3885 6.60531 64.3277C6.62049 64.305 7.06837 64.267 7.59975 64.2366C8.92061 64.1607 11.9495 64.2139 14.8645 64.3733ZM43.1414 89.1431C44.9178 89.1811 48.6071 89.2722 51.3399 89.3405C54.9229 89.4316 57.5039 89.4544 60.5631 89.4164C65.0495 89.3633 65.9756 89.4012 66.8637 89.6821C67.7291 89.9478 68.1466 90.4792 68.3744 91.5875C68.5034 92.1948 68.6856 94.7454 68.6173 94.8213C68.5717 94.8593 64.6851 94.8061 53.1238 94.6088C47.9011 94.5177 41.6156 94.4114 32.5518 94.2672C16.5649 94.0091 7.20501 93.8421 7.18983 93.8269C7.18224 93.8193 7.15187 93.0602 7.1291 92.1416C7.09874 91.2231 7.06078 90.2439 7.03801 89.963L6.99246 89.4544L7.25056 89.4164C8.06281 89.2798 11.7673 89.2115 15.8134 89.257C20.0037 89.3102 23.1995 89.257 27.5796 89.0672C29.2497 88.9913 38.5944 89.0369 43.1414 89.1431Z" fill="#36393E"/>
</svg>
